<svg width="25" height="16" viewBox="0 0 25 16" fill="none" xmlns="http://www.w3.org/2000/svg">
<path d="M21.6668 3.73165V1.10039C21.6635 0.806134 21.5301 0.525039 21.2958 0.318758C21.0615 0.112478 20.7454 -0.0021453 20.4168 3.04172e-05H1.24996C0.921404 -0.0021453 0.605294 0.112478 0.370968 0.318758C0.136642 0.525039 0.00323188 0.806134 0 1.10039V14.1993C0.00323188 14.4936 0.136642 14.7747 0.370968 14.9809C0.605294 15.1872 0.921404 15.3018 1.24996 15.2997H20.4168C20.7454 15.3018 21.0615 15.1872 21.2958 14.9809C21.5301 14.7747 21.6635 14.4936 21.6668 14.1993V11.568H25V3.73165H21.6668ZM23.3334 10.0754H20.0001V13.807H1.66662V1.49268H20.0001V5.22429H23.3334V10.0754Z" fill="black"/>
</svg>
