<svg width="18" height="16" viewBox="0 0 18 16" fill="none" xmlns="http://www.w3.org/2000/svg">
<path d="M8.33872 15.7454H9.66128L18 3.8364V2.84052L17.9922 2.83508C15.3567 0.989796 12.2173 0 9 0C5.78271 0 2.64331 0.989796 0.00780242 2.83508L0 2.84052V3.83625L8.33872 15.7454ZM6.20082 10.6674C7.05642 10.1897 8.02006 9.93891 9 9.93891C9.97994 9.93891 10.9436 10.1897 11.7992 10.6674L9 14.6651L6.20082 10.6674ZM9 1.16129C11.7818 1.15684 14.5056 1.95604 16.8439 3.46279L12.4679 9.71238C11.4147 9.10013 10.2182 8.77761 9 8.77761C7.78177 8.77761 6.58526 9.10013 5.53206 9.71238L1.15606 3.46279C3.49442 1.95604 6.21824 1.15684 9 1.16129Z" fill="black"/>
</svg>
